<svg width="128" height="128" viewBox="0 0 128 128" fill="none" xmlns="http://www.w3.org/2000/svg">
<path d="M62.9248 123.503C96.8571 123.503 124.365 95.9949 124.365 62.0626C124.365 28.1302 96.8571 0.622559 62.9248 0.622559C28.9924 0.622559 1.48477 28.1302 1.48477 62.0626C1.48477 95.9949 28.9924 123.503 62.9248 123.503Z" fill="url(#paint0_linear_202_3)"/>
<path d="M62.9248 123.503C96.8571 123.503 124.365 95.9949 124.365 62.0626C124.365 28.1302 96.8571 0.622559 62.9248 0.622559C28.9924 0.622559 1.48476 28.1302 1.48476 62.0626C1.48476 95.9949 28.9924 123.503 62.9248 123.503Z" fill="url(#paint1_linear_202_3)"/>
<path d="M34.3019 51.4463C40.1004 51.4463 45.3962 51.4463 51.0439 51.4463C49.2343 48.786 47.6402 46.3553 45.9276 44.0107C45.6726 43.6589 44.8648 43.6015 44.3119 43.5979C39.6444 43.5656 34.9769 43.6302 30.313 43.5296C29.5877 43.5153 28.665 42.9839 28.2018 42.4022C26.9129 40.7722 25.8142 38.9842 24.475 37.0167C25.2146 36.9592 25.7137 36.8838 26.2128 36.8838C33.3935 36.8766 40.5743 36.9054 47.7515 36.8551C48.9076 36.8479 49.579 37.2213 50.2253 38.1835C54.3544 44.3374 58.5477 50.4519 62.8562 56.7746C63.2658 56.2683 63.6139 55.9022 63.894 55.489C67.84 49.7087 71.7532 43.9102 75.7422 38.162C76.1513 37.5732 76.9951 36.9341 77.6453 36.9269C85.185 36.8407 92.7212 36.8731 100.261 36.8802C100.537 36.8802 100.814 36.9556 101.374 37.0346C99.9127 39.1924 98.6276 41.1851 97.2165 43.0844C96.9508 43.4434 96.1751 43.5548 95.6365 43.5583C90.9691 43.5943 86.3017 43.6122 81.6338 43.5548C80.5571 43.5404 79.8997 43.8564 79.3144 44.7863C77.9576 46.9513 76.4677 49.0337 74.8303 51.4463C80.4634 51.4463 85.7846 51.4463 91.5507 51.4463C89.9564 53.8056 88.6461 55.8413 87.2064 57.7833C86.9407 58.1391 86.1542 58.2323 85.6049 58.2359C81.1781 58.2753 76.7478 58.3255 72.3241 58.2323C70.7948 58.2001 69.8358 58.6091 68.9705 59.9485C67.0106 62.9898 66.9527 62.914 68.9705 65.7828C70.9309 68.5691 72.8663 71.3769 74.7372 74.2277C78.0867 79.3329 77.8317 85.9858 74.1699 90.6931C70.4138 95.5223 64.1311 97.45 58.4187 95.5259C52.7099 93.6013 48.7712 88.2621 48.7317 82.1873C48.7101 79.1967 49.5611 76.4211 51.3024 73.9297C53.5644 70.6944 55.7327 67.3951 58.0091 64.171C58.6593 63.2514 58.5549 62.6376 58.0562 61.6361C56.6881 58.8892 54.742 57.9128 51.6398 58.1785C47.8987 58.498 44.1073 58.3147 40.3374 58.2072C39.6013 58.1857 38.6607 57.6901 38.2011 57.1049C36.8906 55.4388 35.7704 53.6115 34.3019 51.4463ZM63.19 68.9997C62.8669 69.2439 62.6913 69.3197 62.6012 69.4523C60.5727 72.407 58.4832 75.3224 56.5514 78.3421C54.6739 81.2718 55.2878 85.1133 57.8442 87.512C60.3863 89.8959 64.1633 90.1903 67.0966 88.2263C69.908 86.3452 71.3979 82.5467 69.847 79.5735C67.9368 75.9076 65.452 72.5401 63.19 68.9997Z" fill="#27293D" stroke="#27293D" stroke-width="0.1"/>
<defs>
<linearGradient id="paint0_linear_202_3" x1="62.9248" y1="0.622466" x2="62.9248" y2="123.503" gradientUnits="userSpaceOnUse">
<stop offset="0.269955" stop-color="#2AAFCC"/>
<stop offset="0.391175" stop-color="#2AAFCC"/>
<stop offset="0.591647" stop-color="#47C8E4"/>
</linearGradient>
<linearGradient id="paint1_linear_202_3" x1="62.9248" y1="0.622466" x2="62.9248" y2="123.503" gradientUnits="userSpaceOnUse">
<stop offset="0.269955" stop-color="#2AAFCC"/>
<stop offset="0.391175" stop-color="#2AAFCC"/>
<stop offset="0.591647" stop-color="#47C8E4"/>
</linearGradient>
</defs>
</svg>
