<svg width="34" height="34" viewBox="0 0 34 34" fill="none" xmlns="http://www.w3.org/2000/svg">
<path d="M16.9907 33.9814C26.3744 33.9814 33.9814 26.3744 33.9814 16.9907C33.9814 7.60701 26.3744 0 16.9907 0C7.60701 0 0 7.60701 0 16.9907C0 26.3744 7.60701 33.9814 16.9907 33.9814Z" fill="url(#paint0_linear)"/>
<path d="M9.07523 14.0547C10.6786 14.0547 12.1431 14.0547 13.705 14.0547C13.2048 13.319 12.7639 12.6467 12.2902 11.9984C12.2198 11.9011 11.9964 11.8852 11.8435 11.8842C10.5526 11.8753 9.26171 11.8931 7.97208 11.8653C7.7715 11.8614 7.51623 11.7144 7.38818 11.5536C7.03179 11.1028 6.72802 10.6083 6.35754 10.0642C6.56226 10.0484 6.70026 10.0275 6.83826 10.0275C8.8241 10.0255 10.8099 10.0334 12.7945 10.0196C13.1145 10.0176 13.3001 10.1208 13.4787 10.3869C14.6204 12.0887 15.7804 13.7796 16.9718 15.5281C17.0849 15.3881 17.1811 15.2868 17.2585 15.1727C18.3497 13.5741 19.4321 11.9706 20.5353 10.381C20.6484 10.2181 20.8817 10.0414 21.0616 10.0394C23.1465 10.0156 25.2305 10.0245 27.3158 10.0265C27.3921 10.0265 27.4687 10.0474 27.6233 10.0692C27.2193 10.6659 26.8641 11.217 26.4737 11.7422C26.4004 11.8415 26.1857 11.8723 26.0369 11.8733C24.7461 11.8832 23.4552 11.8882 22.1647 11.8723C21.8668 11.8683 21.6848 11.9557 21.5232 12.2129C21.1478 12.8116 20.7358 13.3875 20.2829 14.0547C21.8411 14.0547 23.3122 14.0547 24.9069 14.0547C24.4659 14.707 24.1037 15.27 23.7055 15.8071C23.6321 15.9054 23.4146 15.9313 23.2629 15.9322C22.0383 15.9431 20.8133 15.9571 19.59 15.9313C19.1669 15.9223 18.9021 16.0355 18.6626 16.4058C18.1205 17.2468 18.1048 17.226 18.6626 18.0193C19.2046 18.7898 19.74 19.5662 20.2572 20.3546C21.1834 21.7665 21.113 23.6063 20.1001 24.908C19.0616 26.2434 17.324 26.7766 15.7447 26.2444C14.1658 25.7122 13.0768 24.2358 13.0656 22.5558C13.0598 21.7287 13.2951 20.9613 13.7767 20.2722C14.402 19.3776 15.0017 18.4651 15.6312 17.5735C15.811 17.3193 15.7824 17.1495 15.6444 16.8725C15.2661 16.1129 14.7278 15.8429 13.8699 15.9163C12.8352 16.0047 11.7867 15.9541 10.7445 15.9243C10.5406 15.9183 10.2807 15.7813 10.1535 15.6195C9.79133 15.1588 9.48135 14.6534 9.07523 14.0547ZM17.0642 18.9089C16.9747 18.9764 16.9262 18.9973 16.9013 19.034C16.3402 19.8512 15.7625 20.6574 15.2284 21.4924C14.7091 22.3026 14.8786 23.365 15.5856 24.0283C16.2884 24.6876 17.3331 24.769 18.1441 24.2259C18.922 23.7056 19.3339 22.6551 18.905 21.833C18.3766 20.8193 17.6895 19.8879 17.0642 18.9089Z" fill="white"/>
<defs>
<linearGradient id="paint0_linear" x1="16.9907" y1="0" x2="16.9907" y2="33.9814" gradientUnits="userSpaceOnUse">
<stop stop-color="#9D37AD"/>
<stop offset="1" stop-color="#5B39E1"/>
</linearGradient>
</defs>
</svg>
