<svg width="288" height="288" viewBox="0 0 288 288" fill="none" xmlns="http://www.w3.org/2000/svg">
<path d="M81.714 198.795C84.0287 199.208 85.992 200.428 87.604 202.453C89.216 204.478 90.022 206.772 90.022 209.335C90.022 211.526 89.4433 213.51 88.286 215.287C87.17 217.023 85.5373 218.408 83.388 219.441C81.2387 220.433 78.738 220.929 75.886 220.929H58.65V177.839H75.08C78.0147 177.839 80.536 178.335 82.644 179.327C84.752 180.319 86.3433 181.662 87.418 183.357C88.4927 185.01 89.03 186.87 89.03 188.937C89.03 191.417 88.3687 193.484 87.046 195.137C85.7233 196.79 83.946 198.01 81.714 198.795ZM65.718 195.943H74.46C76.7747 195.943 78.5727 195.426 79.854 194.393C81.1767 193.318 81.838 191.789 81.838 189.805C81.838 187.862 81.1767 186.354 79.854 185.279C78.5727 184.163 76.7747 183.605 74.46 183.605H65.718V195.943ZM75.266 215.163C77.6633 215.163 79.544 214.584 80.908 213.427C82.272 212.27 82.954 210.658 82.954 208.591C82.954 206.483 82.2307 204.809 80.784 203.569C79.3373 202.329 77.4153 201.709 75.018 201.709H65.718V215.163H75.266ZM127.587 186.767V220.929H120.519V216.899C119.403 218.304 117.935 219.42 116.117 220.247C114.339 221.032 112.438 221.425 110.413 221.425C107.726 221.425 105.308 220.867 103.159 219.751C101.051 218.635 99.3767 216.982 98.1367 214.791C96.9381 212.6 96.3387 209.955 96.3387 206.855V186.767H103.345V205.801C103.345 208.86 104.109 211.216 105.639 212.869C107.168 214.481 109.255 215.287 111.901 215.287C114.546 215.287 116.633 214.481 118.163 212.869C119.733 211.216 120.519 208.86 120.519 205.801V186.767H127.587ZM150.18 192.533H143.856V220.929H136.726V192.533H132.696V186.767H136.726V184.349C136.726 180.422 137.76 177.57 139.826 175.793C141.934 173.974 145.22 173.065 149.684 173.065V178.955C147.535 178.955 146.026 179.368 145.158 180.195C144.29 180.98 143.856 182.365 143.856 184.349V186.767H150.18V192.533ZM169.712 192.533H163.388V220.929H156.258V192.533H152.228V186.767H156.258V184.349C156.258 180.422 157.292 177.57 159.358 175.793C161.466 173.974 164.752 173.065 169.216 173.065V178.955C167.067 178.955 165.558 179.368 164.69 180.195C163.822 180.98 163.388 182.365 163.388 184.349V186.767H169.712V192.533ZM206.232 203.011C206.232 204.292 206.15 205.45 205.984 206.483H179.882C180.089 209.211 181.102 211.402 182.92 213.055C184.739 214.708 186.971 215.535 189.616 215.535C193.419 215.535 196.106 213.944 197.676 210.761H205.302C204.269 213.902 202.388 216.486 199.66 218.511C196.974 220.495 193.626 221.487 189.616 221.487C186.351 221.487 183.416 220.764 180.812 219.317C178.25 217.829 176.224 215.762 174.736 213.117C173.29 210.43 172.566 207.33 172.566 203.817C172.566 200.304 173.269 197.224 174.674 194.579C176.121 191.892 178.126 189.826 180.688 188.379C183.292 186.932 186.268 186.209 189.616 186.209C192.84 186.209 195.713 186.912 198.234 188.317C200.756 189.722 202.719 191.706 204.124 194.269C205.53 196.79 206.232 199.704 206.232 203.011ZM198.854 200.779C198.813 198.175 197.883 196.088 196.064 194.517C194.246 192.946 191.993 192.161 189.306 192.161C186.868 192.161 184.78 192.946 183.044 194.517C181.308 196.046 180.275 198.134 179.944 200.779H198.854ZM219.202 191.727C220.235 189.991 221.599 188.648 223.294 187.697C225.03 186.705 227.076 186.209 229.432 186.209V193.525H227.634C224.865 193.525 222.757 194.228 221.31 195.633C219.905 197.038 219.202 199.477 219.202 202.949V220.929H212.134V186.767H219.202V191.727Z" fill="url(#paint0_linear)"/>
<path d="M86.5311 82.2368C96.9723 82.2368 106.508 82.2368 116.678 82.2368C113.42 77.453 110.549 73.0824 107.465 68.8667C107.006 68.234 105.551 68.1307 104.556 68.1243C96.1512 68.0662 87.7465 68.1824 79.3483 68.0016C78.0424 67.9758 76.3809 67.0203 75.5469 65.9745C73.2259 63.0435 71.2475 59.8285 68.8361 56.2907C70.1679 56.1874 71.0665 56.0518 71.9652 56.0518C84.8954 56.0389 97.8257 56.0906 110.749 56.0002C112.831 55.9873 114.04 56.6587 115.204 58.3888C122.639 69.4542 130.19 80.4485 137.948 91.8173C138.685 90.907 139.312 90.2485 139.817 89.5061C146.922 79.1121 153.969 68.6859 161.152 58.3501C161.889 57.2914 163.408 56.1422 164.578 56.1293C178.155 55.9744 191.725 56.0325 205.302 56.0454C205.8 56.0454 206.297 56.1809 207.306 56.323C204.675 60.2029 202.36 63.7859 199.819 67.2011C199.341 67.8467 197.945 68.0468 196.975 68.0533C188.57 68.1178 180.165 68.1501 171.761 68.0468C169.821 68.021 168.638 68.5891 167.584 70.2612C165.14 74.154 162.457 77.8984 159.509 82.2368C169.653 82.2368 179.234 82.2368 189.617 82.2368C186.747 86.4783 184.387 90.1387 181.795 93.6313C181.316 94.2705 179.9 94.4383 178.911 94.4448C170.94 94.5158 162.962 94.6062 154.997 94.4383C152.243 94.3802 150.516 95.1162 148.958 97.5242C145.428 102.992 145.325 102.857 148.958 108.015C152.488 113.025 155.973 118.073 159.341 123.199C165.373 132.379 164.914 144.342 158.32 152.806C151.557 161.489 140.243 164.956 129.957 161.495C119.678 158.035 112.586 148.435 112.514 137.512C112.476 132.134 114.008 127.144 117.143 122.663C121.216 116.847 125.121 110.914 129.22 105.116C130.39 103.464 130.203 102.36 129.304 100.558C126.841 95.6197 123.337 93.8638 117.751 94.3415C111.015 94.9161 104.187 94.5868 97.399 94.3931C96.0736 94.3544 94.3797 93.4635 93.5522 92.4112C91.1924 89.4157 89.1753 86.1296 86.5311 82.2368ZM138.549 113.799C137.968 114.238 137.651 114.374 137.489 114.613C133.836 119.926 130.074 125.168 126.595 130.598C123.214 135.866 124.32 142.773 128.923 147.086C133.5 151.372 140.301 151.902 145.583 148.371C150.646 144.988 153.329 138.157 150.536 132.812C147.096 126.22 142.622 120.165 138.549 113.799Z" fill="url(#paint1_linear)"/>
<defs>
<linearGradient id="paint0_linear" x1="144.5" y1="152.929" x2="144.5" y2="266.672" gradientUnits="userSpaceOnUse">
<stop offset="0.269955" stop-color="#2AAFCC"/>
<stop offset="0.391175" stop-color="#2AAFCC"/>
<stop offset="0.591647" stop-color="#47C8E4"/>
</linearGradient>
<linearGradient id="paint1_linear" x1="138.071" y1="56" x2="138.071" y2="162.82" gradientUnits="userSpaceOnUse">
<stop offset="0.269955" stop-color="#2AAFCC"/>
<stop offset="0.391175" stop-color="#2AAFCC"/>
<stop offset="0.591647" stop-color="#47C8E4"/>
</linearGradient>
</defs>
</svg>
